<?xml version="1.0" encoding="UTF-8" standalone="no"?>
<svg
   xmlns:dc="http://purl.org/dc/elements/1.1/"
   xmlns:cc="http://creativecommons.org/ns#"
   xmlns:rdf="http://www.w3.org/1999/02/22-rdf-syntax-ns#"
   xmlns:svg="http://www.w3.org/2000/svg"
   xmlns="http://www.w3.org/2000/svg"
   xmlns:sodipodi="http://sodipodi.sourceforge.net/DTD/sodipodi-0.dtd"
   xmlns:inkscape="http://www.inkscape.org/namespaces/inkscape"
   width="209.01286mm"
   height="44.408672mm"
   viewBox="0 0 209.01287 44.408672"
   version="1.1"
   id="svg5842"
   inkscape:version="1.0.2 (e86c870879, 2021-01-15)"
   sodipodi:docname="eabanner.svg"
   inkscape:export-filename="/home/sam/Personal/ea-public-interest-technology.github.io/images/eapicbanner.png"
   inkscape:export-xdpi="96"
   inkscape:export-ydpi="96">
  <defs
     id="defs5836">
    <linearGradient
       x1="0"
       y1="0"
       x2="1"
       y2="0"
       gradientUnits="userSpaceOnUse"
       gradientTransform="matrix(0,5.8895974,-5.8895974,0,648.68359,588.48584)"
       spreadMethod="pad"
       id="linearGradient5580">
      <stop
         style="stop-opacity:1;stop-color:#34869f"
         offset="0"
         id="stop5576" />
      <stop
         style="stop-opacity:1;stop-color:#264c63"
         offset="1"
         id="stop5578" />
    </linearGradient>
    <linearGradient
       x1="0"
       y1="0"
       x2="1"
       y2="0"
       gradientUnits="userSpaceOnUse"
       gradientTransform="matrix(0,10.235995,-10.235995,0,648.5,598.25537)"
       spreadMethod="pad"
       id="linearGradient5600">
      <stop
         style="stop-opacity:1;stop-color:#34869f"
         offset="0"
         id="stop5596" />
      <stop
         style="stop-opacity:1;stop-color:#264c63"
         offset="1"
         id="stop5598" />
    </linearGradient>
    <clipPath
       clipPathUnits="userSpaceOnUse"
       id="clipPath5610">
      <path
         d="M 0,841.89 H 1683.858 V 0 H 0 Z"
         id="path5608" />
    </clipPath>
    <linearGradient
       x1="0"
       y1="0"
       x2="1"
       y2="0"
       gradientUnits="userSpaceOnUse"
       gradientTransform="matrix(15.791336,12.77957,-12.77957,15.791336,631.75,639.59131)"
       spreadMethod="pad"
       id="linearGradient5632">
      <stop
         style="stop-opacity:1;stop-color:#34869f"
         offset="0"
         id="stop5628" />
      <stop
         style="stop-opacity:1;stop-color:#264c63"
         offset="1"
         id="stop5630" />
    </linearGradient>
  </defs>
  <sodipodi:namedview
     id="base"
     pagecolor="#ffffff"
     bordercolor="#666666"
     borderopacity="1.0"
     inkscape:pageopacity="0.0"
     inkscape:pageshadow="2"
     inkscape:zoom="0.73491486"
     inkscape:cx="206.89845"
     inkscape:cy="185.28194"
     inkscape:document-units="mm"
     inkscape:current-layer="layer1"
     inkscape:document-rotation="0"
     showgrid="false"
     showguides="true"
     inkscape:guide-bbox="true"
     inkscape:window-width="1200"
     inkscape:window-height="720"
     inkscape:window-x="0"
     inkscape:window-y="0"
     inkscape:window-maximized="1"
     fit-margin-top="5"
     fit-margin-bottom="5"
     fit-margin-right="5"
     fit-margin-left="5"
     lock-margins="true">
    <sodipodi:guide
       position="90.781684,4.9999986"
       orientation="0,-1"
       id="guide6015" />
  </sodipodi:namedview>
  <metadata
     id="metadata5839">
    <rdf:RDF>
      <cc:Work
         rdf:about="">
        <dc:format>image/svg+xml</dc:format>
        <dc:type
           rdf:resource="http://purl.org/dc/dcmitype/StillImage" />
        <dc:title></dc:title>
      </cc:Work>
    </rdf:RDF>
  </metadata>
  <g
     inkscape:label="Layer 1"
     inkscape:groupmode="layer"
     id="layer1"
     transform="translate(1.321365,-59.759556)">
    <g
       id="g5564"
       transform="matrix(0.35277777,0,0,-0.35277777,-198.85639,306.77442)">
      <g
         id="g5566">
        <g
           id="g5572">
          <g
             id="g5574">
            <path
               d="m 633.447,597.919 c 0,-1.505 1.221,-2.724 2.727,-2.724 v 0 c 12.684,0 18.933,-0.233 22.373,-5.475 v 0 c 0.521,-0.795 1.392,-1.23 2.279,-1.23 v 0 c 0.514,0 1.031,0.145 1.492,0.447 v 0 c 1.258,0.826 1.607,2.513 0.783,3.771 v 0 c -5.205,7.934 -14.316,7.934 -26.927,7.934 v 0 c -1.506,0 -2.727,-1.22 -2.727,-2.723"
               style="fill:url(#linearGradient5580);stroke:none"
               id="path5582" />
          </g>
        </g>
      </g>
    </g>
    <g
       id="g5584"
       transform="matrix(0.35277777,0,0,-0.35277777,-198.85639,306.77442)">
      <g
         id="g5586">
        <g
           id="g5592">
          <g
             id="g5594">
            <path
               d="m 633.447,608.854 c 0,-1.502 1.221,-2.722 2.727,-2.722 v 0 c 12.988,0 20.859,-0.572 21.822,-3.369 v 0 c -0.223,-0.533 -0.928,-1.062 -3.162,-1.485 v 0 c -3.439,-0.648 -8.865,-0.641 -16.373,-0.636 v 0 h -2.287 c -1.506,0 -2.727,-1.22 -2.727,-2.723 v 0 c 0,-1.505 1.221,-2.724 2.727,-2.724 v 0 l 2.283,-0.001 c 0.713,0 1.406,-10e-4 2.082,-10e-4 v 0 c 6.737,0 11.721,0.057 15.305,0.732 v 0 c 3.681,0.695 6.047,2.214 7.088,4.523 v 0 c 0.381,0.466 0.601,2.142 0.588,2.355 v 0 c 0.017,0.225 -0.161,1.811 -0.473,2.254 v 0 c -2.473,6.517 -13.887,6.521 -26.873,6.521 v 0 c -1.506,0 -2.727,-1.219 -2.727,-2.724"
               style="fill:url(#linearGradient5600);stroke:none"
               id="path5602" />
          </g>
        </g>
      </g>
    </g>
    <g
       id="g5604"
       transform="matrix(0.35277777,0,0,-0.35277777,-198.85639,306.77442)">
      <g
         id="g5606"
         clip-path="url(#clipPath5610)">
        <g
           id="g5612"
           transform="translate(646.5977,686.0264)">
          <path
             d="m 0,0 c -16.967,0 -30.77,-13.803 -30.77,-30.771 0,-7.377 2.659,-14.517 7.485,-20.104 l 0.002,-10e-4 c 0.023,-0.029 2.41,-2.878 3.933,-8.549 1.397,-5.206 5.114,-8.075 10.463,-8.075 l 5.117,0.011 c 2.936,0 5.436,0.571 14.567,14.664 1.66,2.562 3.613,6.648 4.738,10.247 1.916,6.124 0.522,9.856 -0.988,11.91 -1.752,2.383 -4.652,3.808 -7.754,3.808 -2.397,0 -4.814,-1.55 -6.719,-3.317 0,0 -1.769,-1.566 -2.793,-4.384 -0.334,-0.957 -0.515,-1.943 -0.515,-2.928 0,-2.386 1.879,-3.757 3.048,-3.757 1.696,0 3.108,2.104 3.108,3.757 0,0.858 -0.154,1.805 -0.447,2.771 1.054,1.388 3.066,2.442 4.318,2.442 0.519,0 2.301,-0.116 3.391,-1.599 1.103,-1.499 1.166,-3.95 0.185,-7.087 -0.814,-2.601 -2.424,-6.088 -4.017,-8.772 -3.461,-5.829 -6.743,-9.236 -8.508,-11.183 -0.481,-0.532 -1.184,-1.159 -2.549,-1.159 l -4.182,0.023 c -2.847,0 -4.453,1.245 -5.201,4.039 -1.853,6.899 -4.867,10.46 -5.072,10.698 -3.977,4.597 -6.164,10.473 -6.164,16.545 0,13.963 11.359,25.324 25.324,25.324 13.965,0 25.322,-11.361 25.322,-25.324 0,-6.324 -2.361,-12.984 -6.16,-17.382 -0.004,-0.004 -0.008,-0.009 -0.012,-0.014 -0.88,-0.975 -6.39,-7.548 -6.39,-19.507 0,-3.371 -7.17,-6.775 -23.184,-6.775 -1.504,0 -2.724,-1.218 -2.724,-2.723 0,-1.503 1.22,-2.723 2.724,-2.723 24.91,0 28.631,7.656 28.631,12.221 0,10.378 4.766,15.619 4.992,15.863 0.022,0.023 0.035,0.046 0.055,0.068 0.008,0.011 0.019,0.017 0.029,0.028 4.69,5.425 7.487,13.256 7.487,20.944 C 30.77,-13.803 16.967,0 0,0"
             style="fill:#34869f;fill-opacity:1;fill-rule:nonzero;stroke:none"
             id="path5614" />
        </g>
      </g>
    </g>
    <g
       id="g5616"
       transform="matrix(0.35277777,0,0,-0.35277777,-198.85639,306.77442)">
      <g
         id="g5618">
        <g
           id="g5624">
          <g
             id="g5626">
            <path
               d="m 631.981,655.154 c -2.196,-3.146 -2.462,-7.45 -0.744,-12.124 v 0 c 1.612,-4.395 5.488,-8.86 8.334,-11.757 v 0 c 1.048,-1.066 2.761,-1.081 3.827,-0.032 v 0 c 1.069,1.047 1.082,2.761 0.035,3.828 v 0 c -3.445,3.504 -6.13,7.143 -7.115,9.829 v 0 c -1.087,2.962 -1.052,5.503 0.102,7.158 v 0 c 0.824,1.18 2.205,1.833 3.887,1.833 v 0 c 1.181,0 2.764,-1.108 3.572,-2.423 v 0 c 1.023,2.817 2.793,4.384 2.793,4.384 v 0 c -1.629,1.789 -3.807,3.453 -6.365,3.453 v 0 c -3.452,0 -6.487,-1.513 -8.326,-4.149"
               style="fill:url(#linearGradient5632);stroke:none"
               id="path5634" />
          </g>
        </g>
      </g>
    </g>
    <text
       xml:space="preserve"
       style="font-style:normal;font-variant:normal;font-weight:normal;font-stretch:normal;font-size:9.44992px;line-height:1.25;font-family:'Roboto Slab';-inkscape-font-specification:'Roboto Slab';word-spacing:0px;stroke-width:0.236249"
       x="3.166661"
       y="74.737991"
       id="text5989"
       transform="scale(0.75849163,1.3184061)"><tspan
         sodipodi:role="line"
         id="tspan5987"
         x="3.166661"
         y="74.737991"
         style="font-style:normal;font-variant:normal;font-weight:300;font-stretch:normal;font-size:45.3598px;font-family:'Roboto Slab';-inkscape-font-specification:'Roboto Slab Light';fill:#cccccc;stroke-width:0.236249">&lt;</tspan></text>
    <text
       xml:space="preserve"
       style="font-style:normal;font-variant:normal;font-weight:normal;font-stretch:normal;font-size:9.44992px;line-height:1.25;font-family:'Roboto Slab';-inkscape-font-specification:'Roboto Slab';word-spacing:0px;stroke-width:0.236249"
       x="-73.841484"
       y="74.719315"
       id="text5989-3"
       transform="scale(-0.75849163,1.3184061)"><tspan
         sodipodi:role="line"
         id="tspan5987-6"
         x="-73.841484"
         y="74.719315"
         style="font-style:normal;font-variant:normal;font-weight:300;font-stretch:normal;font-size:45.3598px;font-family:'Roboto Slab';-inkscape-font-specification:'Roboto Slab Light';fill:#cccccc;stroke-width:0.236249">&lt;</tspan></text>
    <text
       xml:space="preserve"
       style="font-size:10.5833px;line-height:1.25;font-family:sans-serif;word-spacing:0px;stroke-width:0.264583"
       x="59.419041"
       y="78.655975"
       id="text6037"><tspan
         sodipodi:role="line"
         id="tspan6035"
         x="59.419041"
         y="78.655975"
         style="font-style:normal;font-variant:normal;font-weight:300;font-stretch:normal;font-family:'Roboto Slab';-inkscape-font-specification:'Roboto Slab Light';stroke-width:0.264583"><tspan
   style="font-style:normal;font-variant:normal;font-weight:bold;font-stretch:normal;font-family:'Roboto Slab';-inkscape-font-specification:'Roboto Slab Bold'"
   id="tspan6041">Effective</tspan> Altruism</tspan><tspan
         sodipodi:role="line"
         x="59.419041"
         y="92.252922"
         style="font-style:normal;font-variant:normal;font-weight:300;font-stretch:normal;font-family:'Roboto Slab';-inkscape-font-specification:'Roboto Slab Light';stroke-width:0.264583"
         id="tspan6039">Public Interest Technologists</tspan></text>
  </g>
</svg>
